<mxfile host="app.diagrams.net" modified="2023-07-02T07:27:25.126Z" agent="Mozilla/5.0 (Windows NT 10.0; Win64; x64) AppleWebKit/537.36 (KHTML, like Gecko) Chrome/114.0.0.0 Safari/537.36 OPR/100.0.0.0" etag="baiW_PVwDsSMtMDG0MtA" version="21.5.2" type="github">
  <diagram name="Page-1" id="W36LRVmOK_E-U8wfmszz">
    <mxGraphModel dx="357" dy="1009" grid="1" gridSize="10" guides="1" tooltips="1" connect="1" arrows="1" fold="1" page="1" pageScale="1" pageWidth="827" pageHeight="1169" math="0" shadow="0">
      <root>
        <mxCell id="0" />
        <mxCell id="1" parent="0" />
        <mxCell id="MXbhntgV82_HyIMRHFPu-1" value="Admin" style="swimlane;whiteSpace=wrap" vertex="1" parent="1">
          <mxGeometry x="1790" y="120" width="240" height="640" as="geometry" />
        </mxCell>
        <mxCell id="MXbhntgV82_HyIMRHFPu-2" value="" style="ellipse;shape=startState;fillColor=#000000;strokeColor=#000000;" vertex="1" parent="MXbhntgV82_HyIMRHFPu-1">
          <mxGeometry x="105" y="40" width="30" height="30" as="geometry" />
        </mxCell>
        <mxCell id="MXbhntgV82_HyIMRHFPu-3" value="" style="edgeStyle=elbowEdgeStyle;elbow=horizontal;verticalAlign=bottom;endArrow=open;endSize=8;strokeColor=#000000;endFill=1;rounded=0;entryX=0.5;entryY=0;entryDx=0;entryDy=0;entryPerimeter=0;" edge="1" parent="MXbhntgV82_HyIMRHFPu-1">
          <mxGeometry x="100" y="40" as="geometry">
            <mxPoint x="115" y="100" as="targetPoint" />
            <mxPoint x="114.71428571428578" y="100" as="sourcePoint" />
          </mxGeometry>
        </mxCell>
        <mxCell id="MXbhntgV82_HyIMRHFPu-4" value="" style="edgeStyle=elbowEdgeStyle;elbow=horizontal;verticalAlign=bottom;endArrow=open;endSize=8;strokeColor=#000000;endFill=1;rounded=0;entryX=0.5;entryY=0;entryDx=0;entryDy=0;entryPerimeter=0;" edge="1" parent="MXbhntgV82_HyIMRHFPu-1" source="MXbhntgV82_HyIMRHFPu-2">
          <mxGeometry x="100" y="40" as="geometry">
            <mxPoint x="120" y="100" as="targetPoint" />
            <mxPoint x="155" y="190" as="sourcePoint" />
          </mxGeometry>
        </mxCell>
        <mxCell id="MXbhntgV82_HyIMRHFPu-5" value="Login" style="rounded=1;whiteSpace=wrap;html=1;arcSize=40;fontColor=#000000;fillColor=#FFFFFF;strokeColor=#000000;" vertex="1" parent="MXbhntgV82_HyIMRHFPu-1">
          <mxGeometry x="80" y="100" width="80" height="40" as="geometry" />
        </mxCell>
        <mxCell id="MXbhntgV82_HyIMRHFPu-6" value="Pilih Menu Transaction" style="rounded=1;whiteSpace=wrap;html=1;arcSize=40;fontColor=#000000;fillColor=#FFFFFF;strokeColor=#000000;" vertex="1" parent="MXbhntgV82_HyIMRHFPu-1">
          <mxGeometry x="80" y="240" width="80" height="40" as="geometry" />
        </mxCell>
        <mxCell id="MXbhntgV82_HyIMRHFPu-7" value="" style="edgeStyle=orthogonalEdgeStyle;rounded=0;orthogonalLoop=1;jettySize=auto;html=1;" edge="1" parent="MXbhntgV82_HyIMRHFPu-1" source="MXbhntgV82_HyIMRHFPu-8" target="MXbhntgV82_HyIMRHFPu-9">
          <mxGeometry relative="1" as="geometry" />
        </mxCell>
        <mxCell id="MXbhntgV82_HyIMRHFPu-8" value="Konfirmasi Pembayaran" style="rounded=1;whiteSpace=wrap;html=1;arcSize=40;fontColor=#000000;fillColor=#FFFFFF;strokeColor=#000000;" vertex="1" parent="MXbhntgV82_HyIMRHFPu-1">
          <mxGeometry x="80" y="362.5" width="80" height="40" as="geometry" />
        </mxCell>
        <mxCell id="MXbhntgV82_HyIMRHFPu-9" value="Submit" style="rounded=1;whiteSpace=wrap;html=1;arcSize=40;fontColor=#000000;fillColor=#FFFFFF;strokeColor=#000000;" vertex="1" parent="MXbhntgV82_HyIMRHFPu-1">
          <mxGeometry x="80" y="430" width="80" height="40" as="geometry" />
        </mxCell>
        <mxCell id="MXbhntgV82_HyIMRHFPu-10" value="Lihat Data Transaction" style="rounded=1;whiteSpace=wrap;html=1;arcSize=40;fontColor=#000000;fillColor=#FFFFFF;strokeColor=#000000;" vertex="1" parent="MXbhntgV82_HyIMRHFPu-1">
          <mxGeometry x="80" y="540" width="80" height="40" as="geometry" />
        </mxCell>
        <mxCell id="MXbhntgV82_HyIMRHFPu-11" value="" style="ellipse;shape=endState;fillColor=#000000;strokeColor=#000000;" vertex="1" parent="MXbhntgV82_HyIMRHFPu-1">
          <mxGeometry x="105" y="600" width="30" height="30" as="geometry" />
        </mxCell>
        <mxCell id="MXbhntgV82_HyIMRHFPu-12" value="" style="edgeStyle=orthogonalEdgeStyle;rounded=0;orthogonalLoop=1;jettySize=auto;html=1;" edge="1" parent="MXbhntgV82_HyIMRHFPu-1" source="MXbhntgV82_HyIMRHFPu-10" target="MXbhntgV82_HyIMRHFPu-11">
          <mxGeometry relative="1" as="geometry" />
        </mxCell>
        <mxCell id="MXbhntgV82_HyIMRHFPu-13" value="Sistem" style="swimlane;whiteSpace=wrap;startSize=23;" vertex="1" parent="1">
          <mxGeometry x="2030" y="120" width="240" height="640" as="geometry" />
        </mxCell>
        <mxCell id="MXbhntgV82_HyIMRHFPu-14" value="Ya" style="edgeStyle=orthogonalEdgeStyle;rounded=0;orthogonalLoop=1;jettySize=auto;html=1;entryX=0.5;entryY=0;entryDx=0;entryDy=0;exitX=0.5;exitY=1;exitDx=0;exitDy=0;" edge="1" parent="MXbhntgV82_HyIMRHFPu-13" source="MXbhntgV82_HyIMRHFPu-16">
          <mxGeometry x="-0.3333" relative="1" as="geometry">
            <mxPoint x="135" y="180" as="targetPoint" />
            <mxPoint as="offset" />
            <mxPoint x="129.9999999999999" y="155" as="sourcePoint" />
          </mxGeometry>
        </mxCell>
        <mxCell id="MXbhntgV82_HyIMRHFPu-15" value="Detail Transaction" style="strokeWidth=2;html=1;shape=mxgraph.flowchart.decision;whiteSpace=wrap;" vertex="1" parent="MXbhntgV82_HyIMRHFPu-13">
          <mxGeometry x="95" y="302.5" width="80" height="80" as="geometry" />
        </mxCell>
        <mxCell id="MXbhntgV82_HyIMRHFPu-16" value="Verifikasi" style="rhombus;whiteSpace=wrap;html=1;" vertex="1" parent="MXbhntgV82_HyIMRHFPu-13">
          <mxGeometry x="95" y="80" width="80" height="80" as="geometry" />
        </mxCell>
        <mxCell id="MXbhntgV82_HyIMRHFPu-17" value="Validasi" style="rhombus;whiteSpace=wrap;html=1;" vertex="1" parent="MXbhntgV82_HyIMRHFPu-13">
          <mxGeometry x="20" y="402.5" width="80" height="80" as="geometry" />
        </mxCell>
        <mxCell id="MXbhntgV82_HyIMRHFPu-18" value="Tampil Dashboard" style="rounded=1;whiteSpace=wrap;html=1;arcSize=40;fontColor=#000000;fillColor=#FFFFFF;strokeColor=#000000;" vertex="1" parent="MXbhntgV82_HyIMRHFPu-13">
          <mxGeometry x="95" y="180" width="80" height="40" as="geometry" />
        </mxCell>
        <mxCell id="MXbhntgV82_HyIMRHFPu-19" style="edgeStyle=orthogonalEdgeStyle;rounded=0;orthogonalLoop=1;jettySize=auto;html=1;entryX=0.5;entryY=0;entryDx=0;entryDy=0;entryPerimeter=0;" edge="1" parent="MXbhntgV82_HyIMRHFPu-13" source="MXbhntgV82_HyIMRHFPu-20" target="MXbhntgV82_HyIMRHFPu-15">
          <mxGeometry relative="1" as="geometry" />
        </mxCell>
        <mxCell id="MXbhntgV82_HyIMRHFPu-20" value="Tampil Data Transaction" style="rounded=1;whiteSpace=wrap;html=1;arcSize=40;fontColor=#000000;fillColor=#FFFFFF;strokeColor=#000000;" vertex="1" parent="MXbhntgV82_HyIMRHFPu-13">
          <mxGeometry x="95" y="240" width="80" height="40" as="geometry" />
        </mxCell>
        <mxCell id="MXbhntgV82_HyIMRHFPu-21" value="" style="edgeStyle=orthogonalEdgeStyle;rounded=0;orthogonalLoop=1;jettySize=auto;html=1;entryX=1;entryY=0.5;entryDx=0;entryDy=0;" edge="1" parent="MXbhntgV82_HyIMRHFPu-13" target="MXbhntgV82_HyIMRHFPu-10">
          <mxGeometry relative="1" as="geometry">
            <mxPoint x="135" y="382.4999999999998" as="sourcePoint" />
            <mxPoint x="-80" y="542.5" as="targetPoint" />
            <Array as="points">
              <mxPoint x="135" y="560" />
            </Array>
          </mxGeometry>
        </mxCell>
        <mxCell id="MXbhntgV82_HyIMRHFPu-22" value="Tidak" style="edgeLabel;html=1;align=center;verticalAlign=middle;resizable=0;points=[];" vertex="1" connectable="0" parent="MXbhntgV82_HyIMRHFPu-21">
          <mxGeometry x="-0.1961" y="2" relative="1" as="geometry">
            <mxPoint x="-2" y="-71" as="offset" />
          </mxGeometry>
        </mxCell>
        <mxCell id="MXbhntgV82_HyIMRHFPu-23" value="" style="edgeStyle=orthogonalEdgeStyle;rounded=0;orthogonalLoop=1;jettySize=auto;html=1;" edge="1" parent="MXbhntgV82_HyIMRHFPu-13" target="MXbhntgV82_HyIMRHFPu-24">
          <mxGeometry relative="1" as="geometry">
            <mxPoint x="60" y="482.4999999999998" as="sourcePoint" />
          </mxGeometry>
        </mxCell>
        <mxCell id="MXbhntgV82_HyIMRHFPu-24" value="Tampil Sukses Alert" style="rounded=1;whiteSpace=wrap;html=1;arcSize=40;fontColor=#000000;fillColor=#FFFFFF;strokeColor=#000000;" vertex="1" parent="MXbhntgV82_HyIMRHFPu-13">
          <mxGeometry x="20" y="500" width="80" height="40" as="geometry" />
        </mxCell>
        <mxCell id="MXbhntgV82_HyIMRHFPu-25" style="edgeStyle=orthogonalEdgeStyle;rounded=0;orthogonalLoop=1;jettySize=auto;html=1;entryX=0;entryY=0.5;entryDx=0;entryDy=0;exitX=1;exitY=0.5;exitDx=0;exitDy=0;" edge="1" parent="1" target="MXbhntgV82_HyIMRHFPu-16">
          <mxGeometry relative="1" as="geometry">
            <mxPoint x="1950" y="240" as="sourcePoint" />
            <mxPoint x="2110" y="230" as="targetPoint" />
          </mxGeometry>
        </mxCell>
        <mxCell id="MXbhntgV82_HyIMRHFPu-26" style="edgeStyle=orthogonalEdgeStyle;rounded=0;orthogonalLoop=1;jettySize=auto;html=1;entryX=0.5;entryY=0;entryDx=0;entryDy=0;exitX=0;exitY=0.5;exitDx=0;exitDy=0;" edge="1" parent="1">
          <mxGeometry relative="1" as="geometry">
            <mxPoint x="2125" y="320" as="sourcePoint" />
            <mxPoint x="1910" y="360" as="targetPoint" />
            <Array as="points">
              <mxPoint x="2110" y="320" />
              <mxPoint x="1910" y="320" />
            </Array>
          </mxGeometry>
        </mxCell>
        <mxCell id="MXbhntgV82_HyIMRHFPu-27" value="Transaction Management" style="text;html=1;align=center;verticalAlign=middle;resizable=0;points=[];autosize=1;strokeColor=none;fillColor=none;" vertex="1" parent="1">
          <mxGeometry x="1950" y="80" width="160" height="30" as="geometry" />
        </mxCell>
        <mxCell id="MXbhntgV82_HyIMRHFPu-28" style="edgeStyle=orthogonalEdgeStyle;rounded=0;orthogonalLoop=1;jettySize=auto;html=1;entryX=0;entryY=0.5;entryDx=0;entryDy=0;" edge="1" parent="1">
          <mxGeometry relative="1" as="geometry">
            <mxPoint x="1950" y="380.0000000000001" as="sourcePoint" />
            <mxPoint x="2125" y="380" as="targetPoint" />
          </mxGeometry>
        </mxCell>
        <mxCell id="MXbhntgV82_HyIMRHFPu-29" value="" style="endArrow=classic;html=1;rounded=0;entryX=1;entryY=0.5;entryDx=0;entryDy=0;exitX=1;exitY=0.5;exitDx=0;exitDy=0;" edge="1" parent="1" source="MXbhntgV82_HyIMRHFPu-16" target="MXbhntgV82_HyIMRHFPu-2">
          <mxGeometry relative="1" as="geometry">
            <mxPoint x="2210" y="240" as="sourcePoint" />
            <mxPoint x="2340" y="322" as="targetPoint" />
            <Array as="points">
              <mxPoint x="2240" y="240" />
              <mxPoint x="2240" y="175" />
            </Array>
          </mxGeometry>
        </mxCell>
        <mxCell id="MXbhntgV82_HyIMRHFPu-30" value="Tidak" style="edgeLabel;resizable=0;html=1;align=center;verticalAlign=middle;" connectable="0" vertex="1" parent="MXbhntgV82_HyIMRHFPu-29">
          <mxGeometry relative="1" as="geometry">
            <mxPoint x="90" y="65" as="offset" />
          </mxGeometry>
        </mxCell>
        <mxCell id="MXbhntgV82_HyIMRHFPu-31" style="edgeStyle=orthogonalEdgeStyle;rounded=0;orthogonalLoop=1;jettySize=auto;html=1;entryX=0.5;entryY=0;entryDx=0;entryDy=0;exitX=0;exitY=0.5;exitDx=0;exitDy=0;exitPerimeter=0;" edge="1" parent="1" source="MXbhntgV82_HyIMRHFPu-15" target="MXbhntgV82_HyIMRHFPu-8">
          <mxGeometry relative="1" as="geometry">
            <mxPoint x="2125" y="502.5000000000001" as="sourcePoint" />
            <mxPoint x="1950" y="502.5" as="targetPoint" />
          </mxGeometry>
        </mxCell>
        <mxCell id="MXbhntgV82_HyIMRHFPu-32" value="Ya" style="edgeLabel;html=1;align=center;verticalAlign=middle;resizable=0;points=[];" vertex="1" connectable="0" parent="MXbhntgV82_HyIMRHFPu-31">
          <mxGeometry x="-0.9086" y="-1" relative="1" as="geometry">
            <mxPoint x="-7" y="1" as="offset" />
          </mxGeometry>
        </mxCell>
        <mxCell id="MXbhntgV82_HyIMRHFPu-33" value="" style="edgeStyle=orthogonalEdgeStyle;rounded=0;orthogonalLoop=1;jettySize=auto;html=1;" edge="1" parent="1" target="MXbhntgV82_HyIMRHFPu-17">
          <mxGeometry relative="1" as="geometry">
            <mxPoint x="1950" y="562.5" as="sourcePoint" />
          </mxGeometry>
        </mxCell>
        <mxCell id="MXbhntgV82_HyIMRHFPu-34" value="Tidak" style="edgeStyle=orthogonalEdgeStyle;rounded=0;orthogonalLoop=1;jettySize=auto;html=1;endArrow=classic;endFill=1;strokeColor=default;endSize=6;startSize=6;jumpSize=6;entryX=1;entryY=0.5;entryDx=0;entryDy=0;" edge="1" parent="1" source="MXbhntgV82_HyIMRHFPu-17" target="MXbhntgV82_HyIMRHFPu-8">
          <mxGeometry x="-0.873" relative="1" as="geometry">
            <mxPoint x="1950" y="502.5" as="targetPoint" />
            <Array as="points">
              <mxPoint x="2090" y="500" />
              <mxPoint x="1950" y="500" />
            </Array>
            <mxPoint as="offset" />
          </mxGeometry>
        </mxCell>
        <mxCell id="MXbhntgV82_HyIMRHFPu-35" value="" style="edgeStyle=orthogonalEdgeStyle;rounded=0;orthogonalLoop=1;jettySize=auto;html=1;exitX=0;exitY=0.5;exitDx=0;exitDy=0;entryX=0.5;entryY=0;entryDx=0;entryDy=0;" edge="1" parent="1" source="MXbhntgV82_HyIMRHFPu-24" target="MXbhntgV82_HyIMRHFPu-10">
          <mxGeometry relative="1" as="geometry">
            <mxPoint x="2050" y="660" as="sourcePoint" />
            <mxPoint x="1950" y="660" as="targetPoint" />
          </mxGeometry>
        </mxCell>
      </root>
    </mxGraphModel>
  </diagram>
</mxfile>
